<mxfile host="Electron" modified="2025-06-13T14:17:42.901Z" agent="Mozilla/5.0 (Windows NT 10.0; Win64; x64) AppleWebKit/537.36 (KHTML, like Gecko) draw.io/21.6.5 Chrome/114.0.5735.243 Electron/25.3.1 Safari/537.36" etag="Rjspj21b2gHcViBweH5B" version="21.6.5" type="device" pages="2">
  <diagram name="UC ALL" id="xxeBKFnet-3SmpF4jwLq">
    <mxGraphModel dx="1674" dy="844" grid="1" gridSize="10" guides="1" tooltips="1" connect="1" arrows="1" fold="1" page="1" pageScale="1" pageWidth="827" pageHeight="1169" math="0" shadow="0">
      <root>
        <mxCell id="0" />
        <mxCell id="1" parent="0" />
        <mxCell id="NHqDKql3T2KAeo5rcSz0-8" style="rounded=0;orthogonalLoop=1;jettySize=auto;html=1;endArrow=none;endFill=0;" parent="1" source="NHqDKql3T2KAeo5rcSz0-6" target="r6cvFmEh96wZIC5UqGEE-2" edge="1">
          <mxGeometry relative="1" as="geometry">
            <mxPoint x="310" y="95" as="targetPoint" />
          </mxGeometry>
        </mxCell>
        <mxCell id="NHqDKql3T2KAeo5rcSz0-21" style="rounded=0;orthogonalLoop=1;jettySize=auto;html=1;endArrow=none;endFill=0;entryX=0;entryY=0.5;entryDx=0;entryDy=0;" parent="1" source="NHqDKql3T2KAeo5rcSz0-6" target="NHqDKql3T2KAeo5rcSz0-18" edge="1">
          <mxGeometry relative="1" as="geometry" />
        </mxCell>
        <mxCell id="NHqDKql3T2KAeo5rcSz0-6" value="Пользователь" style="shape=umlActor;verticalLabelPosition=bottom;verticalAlign=top;html=1;strokeWidth=2;" parent="1" vertex="1">
          <mxGeometry x="110" y="240" width="30" height="60" as="geometry" />
        </mxCell>
        <mxCell id="NHqDKql3T2KAeo5rcSz0-12" value="UC2.1&lt;br&gt;Добавление товара в корзину" style="ellipse;whiteSpace=wrap;html=1;" parent="1" vertex="1">
          <mxGeometry x="390" y="400" width="140" height="70" as="geometry" />
        </mxCell>
        <mxCell id="NHqDKql3T2KAeo5rcSz0-13" value="UC2.2&lt;br&gt;Действия с параметрами списка товаров" style="ellipse;whiteSpace=wrap;html=1;" parent="1" vertex="1">
          <mxGeometry x="670" y="380" width="140" height="70" as="geometry" />
        </mxCell>
        <mxCell id="r6cvFmEh96wZIC5UqGEE-22" style="rounded=0;orthogonalLoop=1;jettySize=auto;html=1;entryX=0.5;entryY=0.5;entryDx=0;entryDy=0;entryPerimeter=0;endArrow=none;endFill=0;exitX=1;exitY=0.5;exitDx=0;exitDy=0;" parent="1" source="NHqDKql3T2KAeo5rcSz0-18" target="r6cvFmEh96wZIC5UqGEE-3" edge="1">
          <mxGeometry relative="1" as="geometry">
            <mxPoint x="580" y="780" as="sourcePoint" />
          </mxGeometry>
        </mxCell>
        <mxCell id="NHqDKql3T2KAeo5rcSz0-18" value="UC2.Заказ товара" style="ellipse;whiteSpace=wrap;html=1;strokeWidth=3;" parent="1" vertex="1">
          <mxGeometry x="490" y="700" width="140" height="70" as="geometry" />
        </mxCell>
        <mxCell id="NHqDKql3T2KAeo5rcSz0-19" value="UC2.5&lt;br&gt;Доставка" style="ellipse;whiteSpace=wrap;html=1;" parent="1" vertex="1">
          <mxGeometry x="740" y="470" width="140" height="70" as="geometry" />
        </mxCell>
        <mxCell id="NHqDKql3T2KAeo5rcSz0-20" value="UC2.3&lt;br&gt;Ввод и &lt;br&gt;проверка данных клиента" style="ellipse;whiteSpace=wrap;html=1;" parent="1" vertex="1">
          <mxGeometry x="500" y="470" width="140" height="70" as="geometry" />
        </mxCell>
        <mxCell id="NHqDKql3T2KAeo5rcSz0-29" value="&amp;lt;&amp;lt;Включает&amp;gt;&amp;gt;" style="edgeStyle=none;html=1;endArrow=open;verticalAlign=bottom;dashed=1;labelBackgroundColor=none;rounded=0;entryX=0.5;entryY=1;entryDx=0;entryDy=0;" parent="1" source="NHqDKql3T2KAeo5rcSz0-18" target="NHqDKql3T2KAeo5rcSz0-12" edge="1">
          <mxGeometry x="-0.2212" y="-2" width="160" relative="1" as="geometry">
            <mxPoint x="321" y="363" as="sourcePoint" />
            <mxPoint x="439" y="447" as="targetPoint" />
            <mxPoint as="offset" />
          </mxGeometry>
        </mxCell>
        <mxCell id="NHqDKql3T2KAeo5rcSz0-30" value="&amp;lt;&amp;lt;Включает&amp;gt;&amp;gt;" style="edgeStyle=none;html=1;endArrow=open;verticalAlign=bottom;dashed=1;labelBackgroundColor=none;rounded=0;exitX=0.611;exitY=0.044;exitDx=0;exitDy=0;exitPerimeter=0;" parent="1" source="NHqDKql3T2KAeo5rcSz0-18" target="NHqDKql3T2KAeo5rcSz0-20" edge="1">
          <mxGeometry x="-0.226" y="1" width="160" relative="1" as="geometry">
            <mxPoint x="294" y="369" as="sourcePoint" />
            <mxPoint x="346" y="501" as="targetPoint" />
            <mxPoint as="offset" />
          </mxGeometry>
        </mxCell>
        <mxCell id="NHqDKql3T2KAeo5rcSz0-36" value="UC2.4&lt;br&gt;Оплата заказа" style="ellipse;whiteSpace=wrap;html=1;" parent="1" vertex="1">
          <mxGeometry x="590" y="560" width="140" height="70" as="geometry" />
        </mxCell>
        <mxCell id="NHqDKql3T2KAeo5rcSz0-37" value="&amp;lt;&amp;lt;Включает&amp;gt;&amp;gt;" style="edgeStyle=none;html=1;endArrow=open;verticalAlign=bottom;dashed=1;labelBackgroundColor=none;rounded=0;exitX=1;exitY=0;exitDx=0;exitDy=0;" parent="1" source="NHqDKql3T2KAeo5rcSz0-18" target="NHqDKql3T2KAeo5rcSz0-36" edge="1">
          <mxGeometry x="-0.451" y="2" width="160" relative="1" as="geometry">
            <mxPoint x="257" y="362" as="sourcePoint" />
            <mxPoint x="289" y="460" as="targetPoint" />
            <mxPoint as="offset" />
          </mxGeometry>
        </mxCell>
        <mxCell id="NHqDKql3T2KAeo5rcSz0-43" value="&amp;lt;&amp;lt;Расширяет&amp;gt;&amp;gt;" style="edgeStyle=none;html=1;startArrow=open;endArrow=none;startSize=12;verticalAlign=bottom;dashed=1;labelBackgroundColor=none;rounded=0;exitX=0.386;exitY=0.053;exitDx=0;exitDy=0;exitPerimeter=0;" parent="1" source="NHqDKql3T2KAeo5rcSz0-12" target="r6cvFmEh96wZIC5UqGEE-10" edge="1">
          <mxGeometry x="-0.1545" y="-20" width="160" relative="1" as="geometry">
            <mxPoint x="480" y="361" as="sourcePoint" />
            <mxPoint x="520" y="300" as="targetPoint" />
            <mxPoint y="1" as="offset" />
          </mxGeometry>
        </mxCell>
        <mxCell id="NHqDKql3T2KAeo5rcSz0-45" value="&amp;lt;&amp;lt;Расширяет&amp;gt;&amp;gt;" style="edgeStyle=none;html=1;startArrow=open;endArrow=none;startSize=12;verticalAlign=bottom;dashed=1;labelBackgroundColor=none;rounded=0;exitX=0.937;exitY=0.293;exitDx=0;exitDy=0;exitPerimeter=0;" parent="1" source="NHqDKql3T2KAeo5rcSz0-12" target="r6cvFmEh96wZIC5UqGEE-8" edge="1">
          <mxGeometry x="-0.269" y="-6" width="160" relative="1" as="geometry">
            <mxPoint x="530" y="380" as="sourcePoint" />
            <mxPoint x="724.3197795977253" y="326.21151253419976" as="targetPoint" />
            <mxPoint as="offset" />
          </mxGeometry>
        </mxCell>
        <mxCell id="r6cvFmEh96wZIC5UqGEE-2" value="UC1.&lt;br&gt;Просмотр Товаров" style="ellipse;whiteSpace=wrap;html=1;strokeWidth=3;" parent="1" vertex="1">
          <mxGeometry x="360" y="70" width="140" height="70" as="geometry" />
        </mxCell>
        <mxCell id="r6cvFmEh96wZIC5UqGEE-3" value="Магазин" style="shape=umlActor;verticalLabelPosition=bottom;verticalAlign=top;html=1;strokeWidth=2;" parent="1" vertex="1">
          <mxGeometry x="1140" y="275" width="30" height="60" as="geometry" />
        </mxCell>
        <mxCell id="r6cvFmEh96wZIC5UqGEE-4" value="UC1.3&lt;br&gt;Сравнение цен" style="ellipse;whiteSpace=wrap;html=1;" parent="1" vertex="1">
          <mxGeometry x="600" y="180" width="140" height="70" as="geometry" />
        </mxCell>
        <mxCell id="r6cvFmEh96wZIC5UqGEE-5" value="UC1.2&lt;br&gt;Фильтрация товаров по параметрам" style="ellipse;whiteSpace=wrap;html=1;" parent="1" vertex="1">
          <mxGeometry x="470" y="225" width="140" height="70" as="geometry" />
        </mxCell>
        <mxCell id="r6cvFmEh96wZIC5UqGEE-6" value="&amp;lt;&amp;lt;Включает&amp;gt;&amp;gt;" style="edgeStyle=none;html=1;endArrow=open;verticalAlign=bottom;dashed=1;labelBackgroundColor=none;rounded=0;entryX=0;entryY=0;entryDx=0;entryDy=0;" parent="1" source="r6cvFmEh96wZIC5UqGEE-2" target="r6cvFmEh96wZIC5UqGEE-5" edge="1">
          <mxGeometry x="0.3791" y="9" width="160" relative="1" as="geometry">
            <mxPoint x="301" y="342" as="sourcePoint" />
            <mxPoint x="469" y="388" as="targetPoint" />
            <mxPoint as="offset" />
          </mxGeometry>
        </mxCell>
        <mxCell id="r6cvFmEh96wZIC5UqGEE-7" value="&amp;lt;&amp;lt;Включает&amp;gt;&amp;gt;" style="edgeStyle=none;html=1;endArrow=open;verticalAlign=bottom;dashed=1;labelBackgroundColor=none;rounded=0;entryX=0.052;entryY=0.313;entryDx=0;entryDy=0;exitX=0.926;exitY=0.8;exitDx=0;exitDy=0;entryPerimeter=0;exitPerimeter=0;" parent="1" source="r6cvFmEh96wZIC5UqGEE-2" target="r6cvFmEh96wZIC5UqGEE-4" edge="1">
          <mxGeometry x="0.3791" y="9" width="160" relative="1" as="geometry">
            <mxPoint x="467" y="128" as="sourcePoint" />
            <mxPoint x="580" y="201" as="targetPoint" />
            <mxPoint as="offset" />
          </mxGeometry>
        </mxCell>
        <mxCell id="r6cvFmEh96wZIC5UqGEE-8" value="UC1.4&lt;br&gt;Просмотр карточки товара" style="ellipse;whiteSpace=wrap;html=1;" parent="1" vertex="1">
          <mxGeometry x="720" y="295" width="140" height="70" as="geometry" />
        </mxCell>
        <mxCell id="r6cvFmEh96wZIC5UqGEE-9" value="&amp;lt;&amp;lt;Включает&amp;gt;&amp;gt;" style="edgeStyle=none;html=1;endArrow=open;verticalAlign=bottom;dashed=1;labelBackgroundColor=none;rounded=0;exitX=0.978;exitY=0.706;exitDx=0;exitDy=0;exitPerimeter=0;entryX=0;entryY=0;entryDx=0;entryDy=0;" parent="1" source="r6cvFmEh96wZIC5UqGEE-5" target="r6cvFmEh96wZIC5UqGEE-8" edge="1">
          <mxGeometry x="0.184" y="-6" width="160" relative="1" as="geometry">
            <mxPoint x="469" y="127" as="sourcePoint" />
            <mxPoint x="740" y="310" as="targetPoint" />
            <mxPoint x="-1" as="offset" />
          </mxGeometry>
        </mxCell>
        <mxCell id="r6cvFmEh96wZIC5UqGEE-10" value="UC1.1 Поиск товара" style="ellipse;whiteSpace=wrap;html=1;" parent="1" vertex="1">
          <mxGeometry x="350" y="280" width="140" height="70" as="geometry" />
        </mxCell>
        <mxCell id="r6cvFmEh96wZIC5UqGEE-11" value="&amp;lt;&amp;lt;Включает&amp;gt;&amp;gt;" style="edgeStyle=none;html=1;endArrow=open;verticalAlign=bottom;dashed=1;labelBackgroundColor=none;rounded=0;entryX=0;entryY=0.5;entryDx=0;entryDy=0;" parent="1" source="r6cvFmEh96wZIC5UqGEE-10" target="r6cvFmEh96wZIC5UqGEE-8" edge="1">
          <mxGeometry x="0.0768" y="-29" width="160" relative="1" as="geometry">
            <mxPoint x="677" y="219" as="sourcePoint" />
            <mxPoint x="760" y="250" as="targetPoint" />
            <mxPoint as="offset" />
          </mxGeometry>
        </mxCell>
        <mxCell id="r6cvFmEh96wZIC5UqGEE-12" value="&amp;lt;&amp;lt;Включает&amp;gt;&amp;gt;" style="edgeStyle=none;html=1;endArrow=open;verticalAlign=bottom;dashed=1;labelBackgroundColor=none;rounded=0;" parent="1" source="r6cvFmEh96wZIC5UqGEE-2" target="r6cvFmEh96wZIC5UqGEE-10" edge="1">
          <mxGeometry x="0.3791" y="9" width="160" relative="1" as="geometry">
            <mxPoint x="549" y="250" as="sourcePoint" />
            <mxPoint x="750" y="265" as="targetPoint" />
            <mxPoint as="offset" />
          </mxGeometry>
        </mxCell>
        <mxCell id="r6cvFmEh96wZIC5UqGEE-13" value="UC 3.Навигация по сайту" style="ellipse;whiteSpace=wrap;html=1;" parent="1" vertex="1">
          <mxGeometry x="220" y="330" width="140" height="70" as="geometry" />
        </mxCell>
        <mxCell id="r6cvFmEh96wZIC5UqGEE-14" value="&amp;lt;&amp;lt;Расширяет&amp;gt;&amp;gt;" style="edgeStyle=none;html=1;startArrow=open;endArrow=none;startSize=12;verticalAlign=bottom;dashed=1;labelBackgroundColor=none;rounded=0;entryX=0.5;entryY=0;entryDx=0;entryDy=0;" parent="1" source="r6cvFmEh96wZIC5UqGEE-2" target="r6cvFmEh96wZIC5UqGEE-13" edge="1">
          <mxGeometry x="0.2419" y="-3" width="160" relative="1" as="geometry">
            <mxPoint x="519" y="370" as="sourcePoint" />
            <mxPoint x="491" y="280" as="targetPoint" />
            <mxPoint y="1" as="offset" />
          </mxGeometry>
        </mxCell>
        <mxCell id="r6cvFmEh96wZIC5UqGEE-15" value="&amp;lt;&amp;lt;Расширяет&amp;gt;&amp;gt;" style="edgeStyle=none;html=1;startArrow=open;endArrow=none;startSize=12;verticalAlign=bottom;dashed=1;labelBackgroundColor=none;rounded=0;exitX=0;exitY=0;exitDx=0;exitDy=0;" parent="1" source="NHqDKql3T2KAeo5rcSz0-18" target="r6cvFmEh96wZIC5UqGEE-13" edge="1">
          <mxGeometry x="-0.1359" y="4" width="160" relative="1" as="geometry">
            <mxPoint x="370" y="260" as="sourcePoint" />
            <mxPoint x="240" y="220" as="targetPoint" />
            <mxPoint as="offset" />
          </mxGeometry>
        </mxCell>
        <mxCell id="r6cvFmEh96wZIC5UqGEE-17" style="rounded=0;orthogonalLoop=1;jettySize=auto;html=1;endArrow=none;endFill=0;exitX=0.5;exitY=0.5;exitDx=0;exitDy=0;exitPerimeter=0;" parent="1" source="r6cvFmEh96wZIC5UqGEE-3" target="NHqDKql3T2KAeo5rcSz0-13" edge="1">
          <mxGeometry relative="1" as="geometry">
            <mxPoint x="100" y="126" as="sourcePoint" />
            <mxPoint x="217" y="292" as="targetPoint" />
          </mxGeometry>
        </mxCell>
        <mxCell id="r6cvFmEh96wZIC5UqGEE-18" style="rounded=0;orthogonalLoop=1;jettySize=auto;html=1;endArrow=none;endFill=0;exitX=0.5;exitY=0.5;exitDx=0;exitDy=0;exitPerimeter=0;" parent="1" source="r6cvFmEh96wZIC5UqGEE-3" target="r6cvFmEh96wZIC5UqGEE-8" edge="1">
          <mxGeometry relative="1" as="geometry">
            <mxPoint x="1035" y="450" as="sourcePoint" />
            <mxPoint x="786" y="494" as="targetPoint" />
          </mxGeometry>
        </mxCell>
        <mxCell id="r6cvFmEh96wZIC5UqGEE-21" style="rounded=0;orthogonalLoop=1;jettySize=auto;html=1;endArrow=none;endFill=0;exitX=0.5;exitY=0.5;exitDx=0;exitDy=0;exitPerimeter=0;entryX=1;entryY=0.5;entryDx=0;entryDy=0;" parent="1" source="r6cvFmEh96wZIC5UqGEE-3" target="r6cvFmEh96wZIC5UqGEE-2" edge="1">
          <mxGeometry relative="1" as="geometry">
            <mxPoint x="1245" y="120" as="sourcePoint" />
            <mxPoint x="878" y="245" as="targetPoint" />
          </mxGeometry>
        </mxCell>
        <mxCell id="r6cvFmEh96wZIC5UqGEE-24" style="rounded=0;orthogonalLoop=1;jettySize=auto;html=1;entryX=0.667;entryY=0.5;entryDx=0;entryDy=0;entryPerimeter=0;endArrow=none;endFill=0;exitX=1;exitY=0;exitDx=0;exitDy=0;" parent="1" source="NHqDKql3T2KAeo5rcSz0-19" target="r6cvFmEh96wZIC5UqGEE-3" edge="1">
          <mxGeometry relative="1" as="geometry">
            <mxPoint x="590" y="790" as="sourcePoint" />
            <mxPoint x="1365" y="310" as="targetPoint" />
          </mxGeometry>
        </mxCell>
        <mxCell id="r6cvFmEh96wZIC5UqGEE-25" value="&amp;lt;&amp;lt;Расширяет&amp;gt;&amp;gt;" style="edgeStyle=none;html=1;startArrow=open;endArrow=none;startSize=12;verticalAlign=bottom;dashed=1;labelBackgroundColor=none;rounded=0;entryX=0.5;entryY=0;entryDx=0;entryDy=0;exitX=1;exitY=1;exitDx=0;exitDy=0;" parent="1" source="r6cvFmEh96wZIC5UqGEE-4" target="r6cvFmEh96wZIC5UqGEE-8" edge="1">
          <mxGeometry x="0.2419" y="-3" width="160" relative="1" as="geometry">
            <mxPoint x="353" y="135" as="sourcePoint" />
            <mxPoint x="320" y="305" as="targetPoint" />
            <mxPoint y="1" as="offset" />
          </mxGeometry>
        </mxCell>
        <mxCell id="Kw-9ApvMGbfUaLVHa_kQ-21" value="&amp;lt;&amp;lt;Расширяет&amp;gt;&amp;gt;" style="edgeStyle=none;html=1;endArrow=open;verticalAlign=bottom;dashed=1;labelBackgroundColor=none;rounded=0;exitX=0.212;exitY=0.884;exitDx=0;exitDy=0;exitPerimeter=0;entryX=1;entryY=0;entryDx=0;entryDy=0;" parent="1" source="NHqDKql3T2KAeo5rcSz0-19" target="NHqDKql3T2KAeo5rcSz0-36" edge="1">
          <mxGeometry x="-0.1063" y="13" width="160" relative="1" as="geometry">
            <mxPoint x="1018" y="678" as="sourcePoint" />
            <mxPoint x="920" y="640" as="targetPoint" />
            <mxPoint as="offset" />
          </mxGeometry>
        </mxCell>
        <mxCell id="Kw-9ApvMGbfUaLVHa_kQ-22" value="&amp;lt;&amp;lt;Расширяет&amp;gt;&amp;gt;" style="edgeStyle=none;html=1;endArrow=open;verticalAlign=bottom;dashed=1;labelBackgroundColor=none;rounded=0;entryX=1;entryY=0.5;entryDx=0;entryDy=0;" parent="1" source="NHqDKql3T2KAeo5rcSz0-19" target="NHqDKql3T2KAeo5rcSz0-20" edge="1">
          <mxGeometry x="0.2555" y="-3" width="160" relative="1" as="geometry">
            <mxPoint x="756" y="525" as="sourcePoint" />
            <mxPoint x="685" y="568" as="targetPoint" />
            <mxPoint y="1" as="offset" />
          </mxGeometry>
        </mxCell>
        <mxCell id="Kw-9ApvMGbfUaLVHa_kQ-23" value="&amp;lt;&amp;lt;Расширяет&amp;gt;&amp;gt;" style="edgeStyle=none;html=1;endArrow=open;verticalAlign=bottom;dashed=1;labelBackgroundColor=none;rounded=0;exitX=0;exitY=0.5;exitDx=0;exitDy=0;entryX=1;entryY=0.5;entryDx=0;entryDy=0;" parent="1" source="NHqDKql3T2KAeo5rcSz0-13" target="NHqDKql3T2KAeo5rcSz0-12" edge="1">
          <mxGeometry x="-0.37" y="29" width="160" relative="1" as="geometry">
            <mxPoint x="756" y="525" as="sourcePoint" />
            <mxPoint x="685" y="568" as="targetPoint" />
            <mxPoint as="offset" />
          </mxGeometry>
        </mxCell>
      </root>
    </mxGraphModel>
  </diagram>
  <diagram id="NR1Idf1Te283YknC5MYF" name="UC 2">
    <mxGraphModel dx="1674" dy="844" grid="1" gridSize="10" guides="1" tooltips="1" connect="1" arrows="1" fold="1" page="1" pageScale="1" pageWidth="827" pageHeight="1169" math="0" shadow="0">
      <root>
        <mxCell id="0" />
        <mxCell id="1" parent="0" />
        <mxCell id="c8f0NOKD1I9ZirV8yfFA-2" style="rounded=0;orthogonalLoop=1;jettySize=auto;html=1;endArrow=none;endFill=0;entryX=0;entryY=0.5;entryDx=0;entryDy=0;" parent="1" source="c8f0NOKD1I9ZirV8yfFA-3" target="c8f0NOKD1I9ZirV8yfFA-7" edge="1">
          <mxGeometry relative="1" as="geometry" />
        </mxCell>
        <mxCell id="c8f0NOKD1I9ZirV8yfFA-3" value="Пользователь" style="shape=umlActor;verticalLabelPosition=bottom;verticalAlign=top;html=1;strokeWidth=2;" parent="1" vertex="1">
          <mxGeometry x="310" y="485" width="30" height="60" as="geometry" />
        </mxCell>
        <mxCell id="c8f0NOKD1I9ZirV8yfFA-4" value="UC2.1&lt;br&gt;Добавление товара в корзину" style="ellipse;whiteSpace=wrap;html=1;" parent="1" vertex="1">
          <mxGeometry x="630" y="545" width="140" height="70" as="geometry" />
        </mxCell>
        <mxCell id="c8f0NOKD1I9ZirV8yfFA-5" value="UC2.2&lt;br style=&quot;border-color: var(--border-color);&quot;&gt;Действия с параметрами списка товаров" style="ellipse;whiteSpace=wrap;html=1;" parent="1" vertex="1">
          <mxGeometry x="850" y="565" width="140" height="70" as="geometry" />
        </mxCell>
        <mxCell id="c8f0NOKD1I9ZirV8yfFA-6" style="rounded=0;orthogonalLoop=1;jettySize=auto;html=1;entryX=0.5;entryY=0.5;entryDx=0;entryDy=0;entryPerimeter=0;endArrow=none;endFill=0;exitX=1;exitY=0.5;exitDx=0;exitDy=0;" parent="1" source="c8f0NOKD1I9ZirV8yfFA-7" target="c8f0NOKD1I9ZirV8yfFA-21" edge="1">
          <mxGeometry relative="1" as="geometry">
            <mxPoint x="580" y="780" as="sourcePoint" />
          </mxGeometry>
        </mxCell>
        <mxCell id="c8f0NOKD1I9ZirV8yfFA-7" value="UC2.Заказ товара" style="ellipse;whiteSpace=wrap;html=1;strokeWidth=3;" parent="1" vertex="1">
          <mxGeometry x="400" y="480" width="140" height="70" as="geometry" />
        </mxCell>
        <mxCell id="c8f0NOKD1I9ZirV8yfFA-8" value="UC2.5&lt;br&gt;Доставка" style="ellipse;whiteSpace=wrap;html=1;" parent="1" vertex="1">
          <mxGeometry x="840" y="700" width="140" height="70" as="geometry" />
        </mxCell>
        <mxCell id="c8f0NOKD1I9ZirV8yfFA-9" value="UC2.3&lt;br&gt;Ввод и &lt;br&gt;проверка данных клиента" style="ellipse;whiteSpace=wrap;html=1;" parent="1" vertex="1">
          <mxGeometry x="560" y="730" width="140" height="70" as="geometry" />
        </mxCell>
        <mxCell id="c8f0NOKD1I9ZirV8yfFA-11" value="&amp;lt;&amp;lt;Включает&amp;gt;&amp;gt;" style="edgeStyle=none;html=1;endArrow=open;verticalAlign=bottom;dashed=1;labelBackgroundColor=none;rounded=0;exitX=0.95;exitY=0.7;exitDx=0;exitDy=0;exitPerimeter=0;" parent="1" source="c8f0NOKD1I9ZirV8yfFA-7" target="c8f0NOKD1I9ZirV8yfFA-4" edge="1">
          <mxGeometry x="-0.1979" y="4" width="160" relative="1" as="geometry">
            <mxPoint x="450" y="510" as="sourcePoint" />
            <mxPoint x="439" y="447" as="targetPoint" />
            <mxPoint y="1" as="offset" />
          </mxGeometry>
        </mxCell>
        <mxCell id="c8f0NOKD1I9ZirV8yfFA-12" value="&amp;lt;&amp;lt;Включает&amp;gt;&amp;gt;" style="edgeStyle=none;html=1;endArrow=open;verticalAlign=bottom;dashed=1;labelBackgroundColor=none;rounded=0;exitX=0.5;exitY=1;exitDx=0;exitDy=0;entryX=0;entryY=0;entryDx=0;entryDy=0;" parent="1" source="c8f0NOKD1I9ZirV8yfFA-7" target="c8f0NOKD1I9ZirV8yfFA-9" edge="1">
          <mxGeometry width="160" relative="1" as="geometry">
            <mxPoint x="294" y="369" as="sourcePoint" />
            <mxPoint x="346" y="501" as="targetPoint" />
          </mxGeometry>
        </mxCell>
        <mxCell id="c8f0NOKD1I9ZirV8yfFA-14" value="UC2.4&lt;br&gt;Оплата заказа" style="ellipse;whiteSpace=wrap;html=1;" parent="1" vertex="1">
          <mxGeometry x="620" y="635" width="140" height="70" as="geometry" />
        </mxCell>
        <mxCell id="c8f0NOKD1I9ZirV8yfFA-15" value="&amp;lt;&amp;lt;Включает&amp;gt;&amp;gt;" style="edgeStyle=none;html=1;endArrow=open;verticalAlign=bottom;dashed=1;labelBackgroundColor=none;rounded=0;entryX=0.057;entryY=0.286;entryDx=0;entryDy=0;entryPerimeter=0;" parent="1" source="c8f0NOKD1I9ZirV8yfFA-7" target="c8f0NOKD1I9ZirV8yfFA-14" edge="1">
          <mxGeometry x="-0.1232" y="10" width="160" relative="1" as="geometry">
            <mxPoint x="257" y="362" as="sourcePoint" />
            <mxPoint x="289" y="460" as="targetPoint" />
            <mxPoint y="1" as="offset" />
          </mxGeometry>
        </mxCell>
        <mxCell id="c8f0NOKD1I9ZirV8yfFA-16" value="&amp;lt;&amp;lt;Расширяет&amp;gt;&amp;gt;" style="edgeStyle=none;html=1;endArrow=open;verticalAlign=bottom;dashed=1;labelBackgroundColor=none;rounded=0;" parent="1" source="c8f0NOKD1I9ZirV8yfFA-8" target="c8f0NOKD1I9ZirV8yfFA-14" edge="1">
          <mxGeometry x="-0.2159" y="-17" width="160" relative="1" as="geometry">
            <mxPoint x="820" y="665" as="sourcePoint" />
            <mxPoint x="504" y="515" as="targetPoint" />
            <mxPoint as="offset" />
          </mxGeometry>
        </mxCell>
        <mxCell id="c8f0NOKD1I9ZirV8yfFA-17" value="&amp;lt;&amp;lt;Расширяет&amp;gt;&amp;gt;" style="edgeStyle=none;html=1;endArrow=open;verticalAlign=bottom;dashed=1;labelBackgroundColor=none;rounded=0;entryX=1;entryY=0.5;entryDx=0;entryDy=0;" parent="1" source="c8f0NOKD1I9ZirV8yfFA-8" target="c8f0NOKD1I9ZirV8yfFA-9" edge="1">
          <mxGeometry x="0.1847" y="18" width="160" relative="1" as="geometry">
            <mxPoint x="750" y="900" as="sourcePoint" />
            <mxPoint x="475" y="550" as="targetPoint" />
            <mxPoint as="offset" />
          </mxGeometry>
        </mxCell>
        <mxCell id="c8f0NOKD1I9ZirV8yfFA-42" style="rounded=0;orthogonalLoop=1;jettySize=auto;html=1;endArrow=block;endFill=0;" parent="1" source="c8f0NOKD1I9ZirV8yfFA-21" target="c8f0NOKD1I9ZirV8yfFA-41" edge="1">
          <mxGeometry relative="1" as="geometry" />
        </mxCell>
        <mxCell id="c8f0NOKD1I9ZirV8yfFA-21" value="Магазин" style="shape=umlActor;verticalLabelPosition=bottom;verticalAlign=top;html=1;strokeWidth=2;" parent="1" vertex="1">
          <mxGeometry x="1030" y="485" width="30" height="60" as="geometry" />
        </mxCell>
        <mxCell id="c8f0NOKD1I9ZirV8yfFA-34" style="rounded=0;orthogonalLoop=1;jettySize=auto;html=1;endArrow=none;endFill=0;exitX=0.5;exitY=0.5;exitDx=0;exitDy=0;exitPerimeter=0;entryX=1;entryY=0;entryDx=0;entryDy=0;" parent="1" source="c8f0NOKD1I9ZirV8yfFA-21" target="c8f0NOKD1I9ZirV8yfFA-5" edge="1">
          <mxGeometry relative="1" as="geometry">
            <mxPoint x="1280" y="540" as="sourcePoint" />
            <mxPoint x="217" y="292" as="targetPoint" />
          </mxGeometry>
        </mxCell>
        <mxCell id="c8f0NOKD1I9ZirV8yfFA-37" style="rounded=0;orthogonalLoop=1;jettySize=auto;html=1;endArrow=none;endFill=0;exitX=1;exitY=0.5;exitDx=0;exitDy=0;" parent="1" source="c8f0NOKD1I9ZirV8yfFA-8" target="c8f0NOKD1I9ZirV8yfFA-41" edge="1">
          <mxGeometry relative="1" as="geometry">
            <mxPoint x="590" y="790" as="sourcePoint" />
            <mxPoint x="1365" y="310" as="targetPoint" />
          </mxGeometry>
        </mxCell>
        <mxCell id="c8f0NOKD1I9ZirV8yfFA-41" value="Служба доставки" style="shape=umlActor;verticalLabelPosition=bottom;verticalAlign=top;html=1;strokeWidth=2;" parent="1" vertex="1">
          <mxGeometry x="1090" y="640" width="30" height="60" as="geometry" />
        </mxCell>
        <mxCell id="c8f0NOKD1I9ZirV8yfFA-43" value="&amp;lt;&amp;lt;Расширяет&amp;gt;&amp;gt;" style="edgeStyle=none;html=1;endArrow=open;verticalAlign=bottom;dashed=1;labelBackgroundColor=none;rounded=0;exitX=0.043;exitY=0.3;exitDx=0;exitDy=0;exitPerimeter=0;" parent="1" source="c8f0NOKD1I9ZirV8yfFA-5" target="c8f0NOKD1I9ZirV8yfFA-4" edge="1">
          <mxGeometry x="-0.2159" y="-17" width="160" relative="1" as="geometry">
            <mxPoint x="914" y="774" as="sourcePoint" />
            <mxPoint x="756" y="716" as="targetPoint" />
            <mxPoint as="offset" />
          </mxGeometry>
        </mxCell>
      </root>
    </mxGraphModel>
  </diagram>
</mxfile>
